<?xml version="1.0" standalone="no"?><!DOCTYPE svg PUBLIC "-//W3C//DTD SVG 1.1//EN" "http://www.w3.org/Graphics/SVG/1.1/DTD/svg11.dtd"><svg t="1639746064824" class="icon" viewBox="0 0 1024 1024" version="1.1" xmlns="http://www.w3.org/2000/svg" p-id="3072" xmlns:xlink="http://www.w3.org/1999/xlink" width="200" height="200"><defs><style type="text/css"></style></defs><path d="M797.377049 847.737705h-738.622951c-28.537705 0-50.360656-21.822951-50.360655-50.360656v-738.622951c0-28.537705 21.822951-50.360656 50.360655-50.360655h738.622951c28.537705 0 50.360656 21.822951 50.360656 50.360655v738.622951c0 28.537705-21.822951 50.360656-50.360656 50.360656z" fill="#B0BEC5" p-id="3073"></path><path d="M864.52459 847.737705h-738.622951c-28.537705 0-50.360656-21.822951-50.360655-50.360656v-738.622951c0-28.537705 21.822951-50.360656 50.360655-50.360655h738.622951c28.537705 0 50.360656 21.822951 50.360656 50.360655v738.622951c0 28.537705-21.822951 50.360656-50.360656 50.360656z" fill="#CFD8DC" p-id="3074"></path><path d="M75.540984 167.868852h839.344262v520.393443h-839.344262z" fill="#26C6DA" p-id="3075"></path><path d="M142.688525 688.262295l218.229508-260.196721 218.229508 260.196721z" fill="#546E7A" p-id="3076"></path><path d="M327.344262 688.262295L587.540984 260.196721 847.737705 688.262295z" fill="#546E7A" p-id="3077"></path><path d="M188.013115 83.934426m-30.216394 0a30.216393 30.216393 0 1 0 60.432787 0 30.216393 30.216393 0 1 0-60.432787 0Z" fill="#CFD8DC" p-id="3078"></path><path d="M282.019672 83.934426m-30.216393 0a30.216393 30.216393 0 1 0 60.432787 0 30.216393 30.216393 0 1 0-60.432787 0Z" fill="#CFD8DC" p-id="3079"></path><path d="M372.668852 83.934426m-30.216393 0a30.216393 30.216393 0 1 0 60.432787 0 30.216393 30.216393 0 1 0-60.432787 0Z" fill="#CFD8DC" p-id="3080"></path><path d="M335.737705 318.95082c0-33.57377-26.859016-58.754098-58.754098-58.754099S218.229508 287.055738 218.229508 318.95082c-13.429508 1.678689-25.180328 13.429508-25.180328 28.537705 0 16.786885 13.429508 30.216393 30.216394 30.216393h109.114754c16.786885 0 30.216393-13.429508 30.216393-30.216393-1.678689-13.429508-13.429508-26.859016-26.859016-28.537705z" fill="#CFD8DC" p-id="3081"></path><path d="M276.983607 780.590164h201.442623v134.295082h-201.442623z" fill="#B0BEC5" p-id="3082"></path><path d="M360.918033 780.590164h201.442623v134.295082h-201.442623z" fill="#546E7A" p-id="3083"></path><path d="M1000.498361 1000.498361c-20.144262 20.144262-52.039344 20.144262-70.504918 0L609.363934 679.868852l70.504918-70.504918 320.629509 320.629509c20.144262 20.144262 20.144262 50.360656 0 70.504918z" fill="#546E7A" p-id="3084"></path><path d="M679.868852 609.363934l-70.504918 70.504918-72.183606-70.504918-35.252459-107.436065 107.436065 35.252459zM609.363934 537.180328L537.180328 609.363934" fill="#CFD8DC" p-id="3085"></path></svg>